# xmcd
#
# Track frame offsets:
#	150
#	10315
#	22595
#	35190
#	46930
#	58837
#	70397
#	81540
#
# Disc length: 1245 seconds
#
# Revision: 0
# Processed by: cddbd v1.4PL0 Copyright (c) Steve Scherf et al.
# Submitted via: dBpowerAMP V4.0
#
DISCID=6804db08
DTITLE=Compilation - Risque Blues - My Ding-A-Ling
DYEAR=1900
DGENRE=Blues
TTITLE0=Dave Bartholomew - My Ding A-Ling
TTITLE1=Wynonie Harris - I Like My Baby's Pudding
TTITLE2=Fluffy Hunter - My Natch'l Man
TTITLE3=Little Esther - Saturday Night Daddy
TTITLE4=Whnonie Harris - Sittin' On It All The Time
TTITLE5=Billy Ward and The Dominoes - Can't Do Sixty No More
TTITLE6=Roy Brown - Butcher Pete, Part 1
TTITLE7=Eddie Davis - Mountain Oysters
EXTD=
EXTT0=
EXTT1=
EXTT2=
EXTT3=
EXTT4=
EXTT5=
EXTT6=
EXTT7=
PLAYORDER=
